<?xml version="1.0" standalone="no"?>
<!DOCTYPE svg PUBLIC "-//W3C//DTD SVG 20010904//EN"
 "http://www.w3.org/TR/2001/REC-SVG-20010904/DTD/svg10.dtd">
<svg version="1.0" xmlns="http://www.w3.org/2000/svg"
 width="500.000000pt" height="500.000000pt" viewBox="0 0 500.000000 500.000000"
 preserveAspectRatio="xMidYMid meet">

<g transform="translate(0.000000,500.000000) scale(0.100000,-0.100000)"
fill="#000000" stroke="none">
<path d="M2475 3965 c-115 -19 -202 -62 -319 -157 -64 -52 -100 -90 -126 -135
-47 -78 -84 -193 -83 -256 1 -64 60 -186 108 -223 l35 -26 0 -109 c0 -134 31
-263 97 -413 20 -43 24 -62 17 -75 -6 -9 -82 -40 -175 -72 -169 -57 -366 -134
-385 -150 -6 -5 -49 -14 -95 -20 -56 -7 -110 -23 -162 -46 -43 -19 -112 -41
-155 -50 -69 -14 -82 -21 -128 -63 -28 -27 -78 -62 -111 -79 -33 -16 -79 -49
-101 -72 -39 -41 -41 -42 -71 -29 -17 7 -34 16 -37 21 -3 5 10 37 29 71 19 35
40 80 47 100 7 24 29 52 60 78 62 52 120 161 120 226 0 61 22 81 102 88 82 9
120 3 156 -24 21 -16 40 -21 73 -18 l44 3 -1 40 c0 22 -2 47 -5 55 -2 9 4 16
19 18 29 4 45 36 37 75 -10 55 -79 208 -97 218 -35 19 -171 14 -283 -9 -60
-12 -131 -26 -157 -32 -35 -7 -53 -6 -75 4 -62 30 -66 29 -117 -30 -43 -50
-52 -55 -85 -53 -94 6 -99 4 -193 -88 -49 -49 -111 -117 -138 -153 -53 -72
-201 -325 -270 -464 l-45 -89 -3 -347 -3 -347 49 -32 c128 -82 501 -235 700
-287 66 -17 121 -24 183 -24 l88 0 11 -42 c28 -114 117 -388 166 -510 30 -75
54 -142 54 -149 0 -7 -25 -36 -55 -65 -50 -49 -155 -194 -155 -215 0 -5 861
-9 1980 -9 l1980 0 0 138 0 138 -77 47 c-43 25 -117 64 -166 86 -99 45 -98 44
-127 179 -16 79 -27 105 -70 168 l-51 75 -4 182 c-7 261 -23 366 -70 455 -47
89 -259 345 -390 470 -53 51 -95 94 -94 95 13 8 146 123 156 135 9 11 7 21 -9
48 -25 43 -56 59 -138 74 -63 11 -224 56 -285 80 -16 6 -63 32 -103 56 -56 35
-93 50 -165 65 -165 36 -179 36 -219 0 -20 -17 -38 -31 -40 -31 -3 0 -13 19
-22 43 -21 55 -55 91 -117 123 -41 20 -50 29 -46 45 4 15 -1 23 -19 30 -14 5
-23 13 -19 18 3 5 1 12 -5 16 -6 4 -8 11 -5 16 4 5 2 9 -3 9 -6 0 -8 9 -5 20
3 13 0 20 -8 20 -8 0 -20 9 -27 20 -7 11 -18 20 -26 20 -11 0 -14 15 -12 68 3
73 20 119 46 127 11 3 21 20 24 40 4 19 12 35 18 35 5 0 8 -7 4 -15 -3 -8 -1
-15 3 -15 5 0 12 6 14 13 3 6 6 1 7 -13 0 -14 7 -36 15 -50 18 -31 19 -43 3
-34 -10 5 -10 4 -1 -6 22 -24 40 6 45 75 3 36 13 77 23 91 9 15 12 23 6 20 -6
-4 -11 0 -11 8 0 9 5 16 11 16 5 0 7 4 4 10 -3 5 6 12 20 16 14 3 25 11 25 18
0 6 5 4 10 -4 5 -8 10 -19 10 -25 0 -5 -4 -3 -10 5 -7 11 -11 8 -20 -15 -6
-17 -20 -39 -30 -50 -14 -16 -17 -28 -11 -55 6 -32 8 -34 19 -15 17 30 14 13
-5 -25 -12 -25 -13 -35 -4 -38 8 -3 4 -11 -10 -23 -12 -10 -17 -19 -11 -19 5
0 8 -9 5 -19 -4 -16 0 -19 26 -17 47 3 64 27 73 103 20 179 21 192 8 208 -11
13 -10 15 1 10 23 -9 59 124 59 215 0 95 -41 245 -85 309 -38 55 -166 145
-238 166 -74 22 -294 27 -402 10z m640 -793 c-3 -3 -11 0 -18 7 -9 10 -8 11 6
5 10 -3 15 -9 12 -12z m-505 -22 c0 -5 -5 -10 -11 -10 -5 0 -7 5 -4 10 3 6 8
10 11 10 2 0 4 -4 4 -10z m487 -126 c-3 -3 -12 -4 -19 -1 -8 3 -5 6 6 6 11 1
17 -2 13 -5z m-614 -783 c43 -17 90 -31 105 -31 58 0 53 -15 -19 -61 -39 -24
-87 -57 -106 -73 l-35 -29 7 -91 c3 -50 2 -104 -3 -121 -8 -27 -10 -20 -25 60
-9 50 -19 113 -22 142 -3 28 -12 67 -19 85 -15 36 -13 93 5 114 7 8 8 25 4 41
-6 26 -6 27 12 11 10 -9 53 -30 96 -47z m21 -557 c3 -8 2 -12 -4 -9 -6 3 -10
10 -10 16 0 14 7 11 14 -7z m-94 -114 c0 -5 -5 -10 -11 -10 -5 0 -7 5 -4 10 3
6 8 10 11 10 2 0 4 -4 4 -10z m-50 -50 c0 -5 -5 -10 -11 -10 -5 0 -7 5 -4 10
3 6 8 10 11 10 2 0 4 -4 4 -10z m-50 -60 c0 -5 -2 -10 -4 -10 -3 0 -8 5 -11
10 -3 6 -1 10 4 10 6 0 11 -4 11 -10z m-25 -20 c3 -5 1 -10 -4 -10 -6 0 -11 5
-11 10 0 6 2 10 4 10 3 0 8 -4 11 -10z m-20 -30 c3 -5 2 -10 -4 -10 -5 0 -13
5 -16 10 -3 6 -2 10 4 10 5 0 13 -4 16 -10z m-25 -31 c0 -6 -4 -7 -10 -4 -5 3
-10 11 -10 16 0 6 5 7 10 4 6 -3 10 -11 10 -16z m-22 -34 c-3 -3 -9 2 -12 12
-6 14 -5 15 5 6 7 -7 10 -15 7 -18z m-18 -10 c0 -12 -19 -12 -23 0 -4 9 -1 12
9 8 7 -3 14 -7 14 -8z m-35 -26 c11 -16 1 -19 -13 -3 -7 8 -8 14 -3 14 5 0 13
-5 16 -11z m-20 -29 c3 -5 2 -10 -4 -10 -5 0 -13 5 -16 10 -3 6 -2 10 4 10 5
0 13 -4 16 -10z m-27 -35 c-3 -3 -9 2 -12 12 -6 14 -5 15 5 6 7 -7 10 -15 7
-18z m-18 -16 c0 -6 -4 -7 -10 -4 -5 3 -10 11 -10 16 0 6 5 7 10 4 6 -3 10
-11 10 -16z m-30 -27 c0 -15 -2 -15 -10 -2 -13 20 -13 33 0 25 6 -3 10 -14 10
-23z m-20 -22 c0 -5 -7 -7 -15 -4 -8 4 -12 10 -9 15 6 11 24 2 24 -11z m-30
-25 c0 -8 -2 -15 -4 -15 -2 0 -6 7 -10 15 -3 8 -1 15 4 15 6 0 10 -7 10 -15z
m-20 -26 c0 -6 -4 -7 -10 -4 -5 3 -10 11 -10 16 0 6 5 7 10 4 6 -3 10 -11 10
-16z m-20 -20 c0 -6 -4 -7 -10 -4 -5 3 -10 11 -10 16 0 6 5 7 10 4 6 -3 10
-11 10 -16z m-29 -22 c-1 -12 -15 -9 -19 4 -3 6 1 10 8 8 6 -3 11 -8 11 -12z
m-21 -28 c0 -6 -4 -7 -10 -4 -5 3 -10 11 -10 16 0 6 5 7 10 4 6 -3 10 -11 10
-16z m-20 -30 c0 -6 -4 -7 -10 -4 -5 3 -10 11 -10 16 0 6 5 7 10 4 6 -3 10
-11 10 -16z m-30 -15 c0 -8 -5 -12 -10 -9 -6 4 -8 11 -5 16 9 14 15 11 15 -7z
m-20 -29 c0 -8 -2 -15 -4 -15 -2 0 -6 7 -10 15 -3 8 -1 15 4 15 6 0 10 -7 10
-15z m-20 -26 c0 -6 -4 -7 -10 -4 -5 3 -10 11 -10 16 0 6 5 7 10 4 6 -3 10
-11 10 -16z m-27 -32 c-3 -5 -9 -3 -14 4 -4 7 -5 17 -2 22 3 5 9 3 14 -4 4 -7
5 -17 2 -22z m-23 -12 c0 -8 -2 -15 -4 -15 -2 0 -6 7 -10 15 -3 8 -1 15 4 15
6 0 10 -7 10 -15z m-20 -26 c0 -6 -4 -7 -10 -4 -5 3 -10 11 -10 16 0 6 5 7 10
4 6 -3 10 -11 10 -16z m-25 -19 c3 -5 1 -10 -4 -10 -6 0 -11 5 -11 10 0 6 2
10 4 10 3 0 8 -4 11 -10z m-20 -19 c3 -5 1 -12 -5 -16 -5 -3 -10 1 -10 9 0 18
6 21 15 7z m-25 -22 c0 -5 -18 -29 -39 -52 -21 -23 -53 -57 -70 -76 -17 -19
-34 -32 -36 -29 -2 2 16 25 40 52 25 26 45 52 45 57 0 6 5 7 10 4 6 -3 10 1
10 9 0 9 5 16 10 16 6 0 10 7 10 15 0 8 5 15 10 15 6 0 10 -5 10 -11z m-174
-191 c-27 -38 -108 -119 -114 -113 -5 5 116 135 126 135 2 0 -4 -10 -12 -22z"/>
<path d="M3061 3204 c0 -11 3 -14 6 -6 3 7 2 16 -1 19 -3 4 -6 -2 -5 -13z"/>
<path d="M2903 2897 c-2 -30 -1 -31 9 -9 7 14 8 26 2 32 -6 6 -10 -2 -11 -23z"/>
<path d="M2956 2727 c3 -10 9 -15 12 -12 3 3 0 11 -7 18 -10 9 -11 8 -5 -6z"/>
</g>
</svg>
